<?xml version="1.0" encoding="UTF-8"?>
<svg width="46px" height="48px" viewBox="0 0 46 48" version="1.1" xmlns="http://www.w3.org/2000/svg" xmlns:xlink="http://www.w3.org/1999/xlink">
    <!-- Generator: Sketch 45.2 (43514) - http://www.bohemiancoding.com/sketch -->
    <title>Group</title>
    <desc>Created with Sketch.</desc>
    <defs>
        <linearGradient x1="50%" y1="0%" x2="50%" y2="72.4988042%" id="linearGradient-1">
            <stop stop-color="#1E9C16" offset="0%"></stop>
            <stop stop-color="#3DBF38" offset="100%"></stop>
        </linearGradient>
        <linearGradient x1="50%" y1="0%" x2="50%" y2="98.4095982%" id="linearGradient-2">
            <stop stop-color="#42BD41" offset="0%"></stop>
            <stop stop-color="#269D25" offset="100%"></stop>
        </linearGradient>
        <linearGradient x1="50%" y1="0%" x2="50%" y2="72.4988042%" id="linearGradient-3">
            <stop stop-color="#63B328" offset="0%"></stop>
            <stop stop-color="#62C747" offset="100%"></stop>
        </linearGradient>
        <linearGradient x1="50%" y1="0%" x2="50%" y2="98.4095982%" id="linearGradient-4">
            <stop stop-color="#5FC331" offset="0%"></stop>
            <stop stop-color="#70BD34" offset="100%"></stop>
        </linearGradient>
        <linearGradient x1="50%" y1="3.39903353%" x2="50%" y2="76.7127152%" id="linearGradient-5">
            <stop stop-color="#19B4F8" offset="0%"></stop>
            <stop stop-color="#009AE8" offset="52.3676658%"></stop>
            <stop stop-color="#00679D" offset="100%"></stop>
        </linearGradient>
        <linearGradient x1="50%" y1="0%" x2="50%" y2="72.267618%" id="linearGradient-6">
            <stop stop-color="#1AB5F9" offset="0%"></stop>
            <stop stop-color="#009AE8" offset="100%"></stop>
        </linearGradient>
    </defs>
    <g id="Symbols" stroke="none" stroke-width="1" fill="none" fill-rule="evenodd">
        <g id="services" transform="translate(-61.000000, -184.000000)">
            <g transform="translate(5.000000, 0.000000)" id="Group-9">
                <g transform="translate(56.000000, 183.000000)">
                    <g id="Group">
                        <g id="leaf-copy-4" transform="translate(36.499913, 35.278122) rotate(120.000000) translate(-36.499913, -35.278122) translate(34.891174, 30.612779)">
                            <g id="Group">
                                <path d="M1.5,9 C1.5,9 3,7.13793103 3,4.65517241 C3,2.17241379 1.5,0 1.5,0 C1.5,0 1.42108547e-14,1.86206897 1.42108547e-14,4.65517241 C1.42735651e-14,7.44827586 1.5,9 1.5,9 Z" id="Path-9" fill="url(#linearGradient-1)"></path>
                                <path d="M1.8,8.37931034 L1.8,4.96551724 C1.8,4.79411853 1.66568542,4.65517241 1.5,4.65517241 C1.33431458,4.65517241 1.2,4.79411853 1.2,4.96551724 L1.2,8.37931034 C1.2,8.55070906 1.33431458,8.68965517 1.5,8.68965517 C1.66568542,8.68965517 1.8,8.55070906 1.8,8.37931034 Z" id="Path-10" fill="url(#linearGradient-2)" fill-rule="nonzero" opacity="0.5"></path>
                            </g>
                        </g>
                        <g id="leaf-copy-4" transform="translate(39.278958, 30.591988) rotate(75.000000) translate(-39.278958, -30.591988) translate(37.026724, 24.060508)">
                            <g id="Group">
                                <path d="M2.5,13 C2.5,13 5,10.3103448 5,6.72413793 C5,3.13793103 2.5,0 2.5,0 C2.5,0 1.42108547e-14,2.68965517 1.42108547e-14,6.72413793 C1.4315372e-14,10.7586207 2.5,13 2.5,13 Z" id="Path-9" fill="url(#linearGradient-1)"></path>
                                <path d="M3,12.1034483 L3,7.17241379 C3,6.92483787 2.77614237,6.72413793 2.5,6.72413793 C2.22385763,6.72413793 2,6.92483787 2,7.17241379 L2,12.1034483 C2,12.3510242 2.22385763,12.5517241 2.5,12.5517241 C2.77614237,12.5517241 3,12.3510242 3,12.1034483 Z" id="Path-10" fill="url(#linearGradient-2)" fill-rule="nonzero" opacity="0.5"></path>
                            </g>
                        </g>
                        <g id="leaf-copy-4" opacity="0.5" transform="translate(43.687655, 25.360265) rotate(30.000000) translate(-43.687655, -25.360265) translate(42.078916, 20.694923)">
                            <g id="Group">
                                <path d="M1.5,9 C1.5,9 3,7.13793103 3,4.65517241 C3,2.17241379 1.5,0 1.5,0 C1.5,0 1.42108547e-14,1.86206897 1.42108547e-14,4.65517241 C1.42735651e-14,7.44827586 1.5,9 1.5,9 Z" id="Path-9" fill="url(#linearGradient-1)"></path>
                                <path d="M1.8,8.37931034 L1.8,4.96551724 C1.8,4.79411853 1.66568542,4.65517241 1.5,4.65517241 C1.33431458,4.65517241 1.2,4.79411853 1.2,4.96551724 L1.2,8.37931034 C1.2,8.55070906 1.33431458,8.68965517 1.5,8.68965517 C1.66568542,8.68965517 1.8,8.55070906 1.8,8.37931034 Z" id="Path-10" fill="url(#linearGradient-2)" fill-rule="nonzero" opacity="0.5"></path>
                            </g>
                        </g>
                        <g id="leaf-copy-4" transform="translate(40.803308, 22.581220) rotate(-15.000000) translate(-40.803308, -22.581220) translate(38.551074, 16.049741)">
                            <g id="Group">
                                <path d="M2.5,13 C2.5,13 5,10.3103448 5,6.72413793 C5,3.13793103 2.5,0 2.5,0 C2.5,0 1.42108547e-14,2.68965517 1.42108547e-14,6.72413793 C1.4315372e-14,10.7586207 2.5,13 2.5,13 Z" id="Path-9" fill="url(#linearGradient-1)"></path>
                                <path d="M3,12.1034483 L3,7.17241379 C3,6.92483787 2.77614237,6.72413793 2.5,6.72413793 C2.22385763,6.72413793 2,6.92483787 2,7.17241379 L2,12.1034483 C2,12.3510242 2.22385763,12.5517241 2.5,12.5517241 C2.77614237,12.5517241 3,12.3510242 3,12.1034483 Z" id="Path-10" fill="url(#linearGradient-2)" fill-rule="nonzero" opacity="0.5"></path>
                            </g>
                        </g>
                        <g id="leaf-copy-4" transform="translate(15.368796, 8.687063) rotate(564.000000) translate(-15.368796, -8.687063) translate(13.760057, 4.021720)">
                            <g id="Group">
                                <path d="M1.5,9 C1.5,9 3,7.13793103 3,4.65517241 C3,2.17241379 1.5,0 1.5,0 C1.5,0 1.42108547e-14,1.86206897 1.42108547e-14,4.65517241 C1.42735651e-14,7.44827586 1.5,9 1.5,9 Z" id="Path-9" fill="url(#linearGradient-1)"></path>
                                <path d="M1.8,8.37931034 L1.8,4.96551724 C1.8,4.79411853 1.66568542,4.65517241 1.5,4.65517241 C1.33431458,4.65517241 1.2,4.79411853 1.2,4.96551724 L1.2,8.37931034 C1.2,8.55070906 1.33431458,8.68965517 1.5,8.68965517 C1.66568542,8.68965517 1.8,8.55070906 1.8,8.37931034 Z" id="Path-10" fill="url(#linearGradient-2)" fill-rule="nonzero" opacity="0.5"></path>
                            </g>
                        </g>
                        <g id="leaf-copy-4" opacity="0.5" transform="translate(20.319748, 10.961050) rotate(519.000000) translate(-20.319748, -10.961050) translate(18.067514, 4.429570)">
                            <g id="Group">
                                <path d="M2.5,13 C2.5,13 5,10.3103448 5,6.72413793 C5,3.13793103 2.5,0 2.5,0 C2.5,0 1.42108547e-14,2.68965517 1.42108547e-14,6.72413793 C1.4315372e-14,10.7586207 2.5,13 2.5,13 Z" id="Path-9" fill="url(#linearGradient-1)"></path>
                                <path d="M3,12.1034483 L3,7.17241379 C3,6.92483787 2.77614237,6.72413793 2.5,6.72413793 C2.22385763,6.72413793 2,6.92483787 2,7.17241379 L2,12.1034483 C2,12.3510242 2.22385763,12.5517241 2.5,12.5517241 C2.77614237,12.5517241 3,12.3510242 3,12.1034483 Z" id="Path-10" fill="url(#linearGradient-2)" fill-rule="nonzero" opacity="0.5"></path>
                            </g>
                        </g>
                        <g id="leaf-copy-4" transform="translate(11.893988, 27.810624) rotate(514.000000) translate(-11.893988, -27.810624) translate(10.285250, 23.145282)">
                            <g id="Group">
                                <path d="M1.5,9 C1.5,9 3,7.13793103 3,4.65517241 C3,2.17241379 1.5,0 1.5,0 C1.5,0 1.42108547e-14,1.86206897 1.42108547e-14,4.65517241 C1.42735651e-14,7.44827586 1.5,9 1.5,9 Z" id="Path-9" fill="url(#linearGradient-1)"></path>
                                <path d="M1.8,8.37931034 L1.8,4.96551724 C1.8,4.79411853 1.66568542,4.65517241 1.5,4.65517241 C1.33431458,4.65517241 1.2,4.79411853 1.2,4.96551724 L1.2,8.37931034 C1.2,8.55070906 1.33431458,8.68965517 1.5,8.68965517 C1.66568542,8.68965517 1.8,8.55070906 1.8,8.37931034 Z" id="Path-10" fill="url(#linearGradient-2)" fill-rule="nonzero" opacity="0.5"></path>
                            </g>
                        </g>
                        <g id="leaf-copy-4" transform="translate(16.877394, 26.080061) rotate(469.000000) translate(-16.877394, -26.080061) translate(14.625160, 19.548581)">
                            <g id="Group">
                                <path d="M2.5,13 C2.5,13 5,10.3103448 5,6.72413793 C5,3.13793103 2.5,0 2.5,0 C2.5,0 1.42108547e-14,2.68965517 1.42108547e-14,6.72413793 C1.4315372e-14,10.7586207 2.5,13 2.5,13 Z" id="Path-9" fill="url(#linearGradient-1)"></path>
                                <path d="M3,12.1034483 L3,7.17241379 C3,6.92483787 2.77614237,6.72413793 2.5,6.72413793 C2.22385763,6.72413793 2,6.92483787 2,7.17241379 L2,12.1034483 C2,12.3510242 2.22385763,12.5517241 2.5,12.5517241 C2.77614237,12.5517241 3,12.3510242 3,12.1034483 Z" id="Path-10" fill="url(#linearGradient-2)" fill-rule="nonzero" opacity="0.5"></path>
                            </g>
                        </g>
                        <g id="leaf-copy-4" transform="translate(31.549353, 29.980974) scale(-1, -1) rotate(-499.000000) translate(-31.549353, -29.980974) translate(29.297118, 23.449495)">
                            <g id="Group">
                                <path d="M2.5,13 C2.5,13 5,10.3103448 5,6.72413793 C5,3.13793103 2.5,0 2.5,0 C2.5,0 1.42108547e-14,2.68965517 1.42108547e-14,6.72413793 C1.4315372e-14,10.7586207 2.5,13 2.5,13 Z" id="Path-9" fill="url(#linearGradient-1)"></path>
                                <path d="M3,12.1034483 L3,7.17241379 C3,6.92483787 2.77614237,6.72413793 2.5,6.72413793 C2.22385763,6.72413793 2,6.92483787 2,7.17241379 L2,12.1034483 C2,12.3510242 2.22385763,12.5517241 2.5,12.5517241 C2.77614237,12.5517241 3,12.3510242 3,12.1034483 Z" id="Path-10" fill="url(#linearGradient-2)" fill-rule="nonzero" opacity="0.5"></path>
                            </g>
                        </g>
                        <g id="leaf-copy-4" transform="translate(16.198453, 17.508563) rotate(483.000000) translate(-16.198453, -17.508563) translate(14.589714, 12.843221)">
                            <g id="Group">
                                <path d="M1.5,9 C1.5,9 3,7.13793103 3,4.65517241 C3,2.17241379 1.5,0 1.5,0 C1.5,0 1.42108547e-14,1.86206897 1.42108547e-14,4.65517241 C1.42735651e-14,7.44827586 1.5,9 1.5,9 Z" id="Path-9" fill="url(#linearGradient-1)"></path>
                                <path d="M1.8,8.37931034 L1.8,4.96551724 C1.8,4.79411853 1.66568542,4.65517241 1.5,4.65517241 C1.33431458,4.65517241 1.2,4.79411853 1.2,4.96551724 L1.2,8.37931034 C1.2,8.55070906 1.33431458,8.68965517 1.5,8.68965517 C1.66568542,8.68965517 1.8,8.55070906 1.8,8.37931034 Z" id="Path-10" fill="url(#linearGradient-2)" fill-rule="nonzero" opacity="0.5"></path>
                            </g>
                        </g>
                        <g id="leaf-copy-4" transform="translate(18.054449, 12.962214) rotate(438.000000) translate(-18.054449, -12.962214) translate(15.802215, 6.430734)">
                            <g id="Group">
                                <path d="M2.5,13 C2.5,13 5,10.3103448 5,6.72413793 C5,3.13793103 2.5,0 2.5,0 C2.5,0 1.42108547e-14,2.68965517 1.42108547e-14,6.72413793 C1.4315372e-14,10.7586207 2.5,13 2.5,13 Z" id="Path-9" fill="url(#linearGradient-1)"></path>
                                <path d="M3,12.1034483 L3,7.17241379 C3,6.92483787 2.77614237,6.72413793 2.5,6.72413793 C2.22385763,6.72413793 2,6.92483787 2,7.17241379 L2,12.1034483 C2,12.3510242 2.22385763,12.5517241 2.5,12.5517241 C2.77614237,12.5517241 3,12.3510242 3,12.1034483 Z" id="Path-10" fill="url(#linearGradient-2)" fill-rule="nonzero" opacity="0.5"></path>
                            </g>
                        </g>
                        <g id="leaf-copy-4" opacity="0.5" transform="translate(41.549395, 15.940445) scale(-1, -1) rotate(184.000000) translate(-41.549395, -15.940445) translate(39.940657, 11.275102)">
                            <g id="Group">
                                <path d="M1.5,9 C1.5,9 3,7.13793103 3,4.65517241 C3,2.17241379 1.5,0 1.5,0 C1.5,0 1.42108547e-14,1.86206897 1.42108547e-14,4.65517241 C1.42735651e-14,7.44827586 1.5,9 1.5,9 Z" id="Path-9" fill="url(#linearGradient-1)"></path>
                                <path d="M1.8,8.37931034 L1.8,4.96551724 C1.8,4.79411853 1.66568542,4.65517241 1.5,4.65517241 C1.33431458,4.65517241 1.2,4.79411853 1.2,4.96551724 L1.2,8.37931034 C1.2,8.55070906 1.33431458,8.68965517 1.5,8.68965517 C1.66568542,8.68965517 1.8,8.55070906 1.8,8.37931034 Z" id="Path-10" fill="url(#linearGradient-2)" fill-rule="nonzero" opacity="0.5"></path>
                            </g>
                        </g>
                        <g id="leaf-copy-4" transform="translate(29.008864, 7.402177) rotate(189.000000) translate(-29.008864, -7.402177) translate(27.400125, 2.736835)">
                            <g id="Group">
                                <path d="M1.5,9 C1.5,9 3,7.13793103 3,4.65517241 C3,2.17241379 1.5,0 1.5,0 C1.5,0 1.42108547e-14,1.86206897 1.42108547e-14,4.65517241 C1.42735651e-14,7.44827586 1.5,9 1.5,9 Z" id="Path-9" fill="url(#linearGradient-1)"></path>
                                <path d="M1.8,8.37931034 L1.8,4.96551724 C1.8,4.79411853 1.66568542,4.65517241 1.5,4.65517241 C1.33431458,4.65517241 1.2,4.79411853 1.2,4.96551724 L1.2,8.37931034 C1.2,8.55070906 1.33431458,8.68965517 1.5,8.68965517 C1.66568542,8.68965517 1.8,8.55070906 1.8,8.37931034 Z" id="Path-10" fill="url(#linearGradient-2)" fill-rule="nonzero" opacity="0.5"></path>
                            </g>
                        </g>
                        <g id="leaf-copy-4" transform="translate(35.895457, 9.327805) rotate(144.000000) translate(-35.895457, -9.327805) translate(33.643223, 2.796326)">
                            <g id="Group">
                                <path d="M2.5,13 C2.5,13 5,10.3103448 5,6.72413793 C5,3.13793103 2.5,0 2.5,0 C2.5,0 1.42108547e-14,2.68965517 1.42108547e-14,6.72413793 C1.4315372e-14,10.7586207 2.5,13 2.5,13 Z" id="Path-9" fill="url(#linearGradient-1)"></path>
                                <path d="M3,12.1034483 L3,7.17241379 C3,6.92483787 2.77614237,6.72413793 2.5,6.72413793 C2.22385763,6.72413793 2,6.92483787 2,7.17241379 L2,12.1034483 C2,12.3510242 2.22385763,12.5517241 2.5,12.5517241 C2.77614237,12.5517241 3,12.3510242 3,12.1034483 Z" id="Path-10" fill="url(#linearGradient-2)" fill-rule="nonzero" opacity="0.5"></path>
                            </g>
                        </g>
                        <g id="leaf-copy-4" transform="translate(36.225041, 19.785831) scale(-1, -1) rotate(189.000000) translate(-36.225041, -19.785831) translate(34.616302, 15.120489)">
                            <g id="Group">
                                <path d="M1.5,9 C1.5,9 3,7.13793103 3,4.65517241 C3,2.17241379 1.5,0 1.5,0 C1.5,0 1.42108547e-14,1.86206897 1.42108547e-14,4.65517241 C1.42735651e-14,7.44827586 1.5,9 1.5,9 Z" id="Path-9" fill="url(#linearGradient-1)"></path>
                                <path d="M1.8,8.37931034 L1.8,4.96551724 C1.8,4.79411853 1.66568542,4.65517241 1.5,4.65517241 C1.33431458,4.65517241 1.2,4.79411853 1.2,4.96551724 L1.2,8.37931034 C1.2,8.55070906 1.33431458,8.68965517 1.5,8.68965517 C1.66568542,8.68965517 1.8,8.55070906 1.8,8.37931034 Z" id="Path-10" fill="url(#linearGradient-2)" fill-rule="nonzero" opacity="0.5"></path>
                            </g>
                        </g>
                        <g id="leaf-copy-4" opacity="0.5" transform="translate(30.854237, 18.870729) scale(-1, -1) rotate(144.000000) translate(-30.854237, -18.870729) translate(28.602003, 12.339250)">
                            <g id="Group">
                                <path d="M2.5,13 C2.5,13 5,10.3103448 5,6.72413793 C5,3.13793103 2.5,0 2.5,0 C2.5,0 1.42108547e-14,2.68965517 1.42108547e-14,6.72413793 C1.4315372e-14,10.7586207 2.5,13 2.5,13 Z" id="Path-9" fill="url(#linearGradient-1)"></path>
                                <path d="M3,12.1034483 L3,7.17241379 C3,6.92483787 2.77614237,6.72413793 2.5,6.72413793 C2.22385763,6.72413793 2,6.92483787 2,7.17241379 L2,12.1034483 C2,12.3510242 2.22385763,12.5517241 2.5,12.5517241 C2.77614237,12.5517241 3,12.3510242 3,12.1034483 Z" id="Path-10" fill="url(#linearGradient-2)" fill-rule="nonzero" opacity="0.5"></path>
                            </g>
                        </g>
                        <g id="leaf-copy-4" transform="translate(13.008639, 34.655463) scale(1, -1) rotate(103.000000) translate(-13.008639, -34.655463) translate(11.399900, 29.990120)">
                            <g id="Group">
                                <path d="M1.5,9 C1.5,9 3,7.13793103 3,4.65517241 C3,2.17241379 1.5,0 1.5,0 C1.5,0 1.42108547e-14,1.86206897 1.42108547e-14,4.65517241 C1.42735651e-14,7.44827586 1.5,9 1.5,9 Z" id="Path-9" fill="url(#linearGradient-1)"></path>
                                <path d="M1.8,8.37931034 L1.8,4.96551724 C1.8,4.79411853 1.66568542,4.65517241 1.5,4.65517241 C1.33431458,4.65517241 1.2,4.79411853 1.2,4.96551724 L1.2,8.37931034 C1.2,8.55070906 1.33431458,8.68965517 1.5,8.68965517 C1.66568542,8.68965517 1.8,8.55070906 1.8,8.37931034 Z" id="Path-10" fill="url(#linearGradient-2)" fill-rule="nonzero" opacity="0.5"></path>
                            </g>
                        </g>
                        <g id="leaf-copy-4" transform="translate(29.656110, 25.030599) scale(1, -1) rotate(109.000000) translate(-29.656110, -25.030599) translate(27.403875, 18.499120)">
                            <g id="Group">
                                <path d="M2.5,13 C2.5,13 5,10.3103448 5,6.72413793 C5,3.13793103 2.5,0 2.5,0 C2.5,0 1.42108547e-14,2.68965517 1.42108547e-14,6.72413793 C1.4315372e-14,10.7586207 2.5,13 2.5,13 Z" id="Path-9" fill="url(#linearGradient-1)"></path>
                                <path d="M3,12.1034483 L3,7.17241379 C3,6.92483787 2.77614237,6.72413793 2.5,6.72413793 C2.22385763,6.72413793 2,6.92483787 2,7.17241379 L2,12.1034483 C2,12.3510242 2.22385763,12.5517241 2.5,12.5517241 C2.77614237,12.5517241 3,12.3510242 3,12.1034483 Z" id="Path-10" fill="url(#linearGradient-2)" fill-rule="nonzero" opacity="0.5"></path>
                            </g>
                        </g>
                        <g id="leaf-copy-4" transform="translate(35.215872, 26.075269) scale(1, -1) rotate(109.000000) translate(-35.215872, -26.075269) translate(32.963637, 19.543790)">
                            <g id="Group">
                                <path d="M2.5,13 C2.5,13 5,10.3103448 5,6.72413793 C5,3.13793103 2.5,0 2.5,0 C2.5,0 1.42108547e-14,2.68965517 1.42108547e-14,6.72413793 C1.4315372e-14,10.7586207 2.5,13 2.5,13 Z" id="Path-9" fill="url(#linearGradient-1)"></path>
                                <path d="M3,12.1034483 L3,7.17241379 C3,6.92483787 2.77614237,6.72413793 2.5,6.72413793 C2.22385763,6.72413793 2,6.92483787 2,7.17241379 L2,12.1034483 C2,12.3510242 2.22385763,12.5517241 2.5,12.5517241 C2.77614237,12.5517241 3,12.3510242 3,12.1034483 Z" id="Path-10" fill="url(#linearGradient-2)" fill-rule="nonzero" opacity="0.5"></path>
                            </g>
                        </g>
                        <g id="leaf-copy-4" opacity="0.5" transform="translate(20.637451, 31.922758) scale(-1, 1) rotate(-139.000000) translate(-20.637451, -31.922758) translate(18.385216, 25.391279)">
                            <g id="Group">
                                <path d="M2.5,13 C2.5,13 5,10.3103448 5,6.72413793 C5,3.13793103 2.5,0 2.5,0 C2.5,0 1.42108547e-14,2.68965517 1.42108547e-14,6.72413793 C1.4315372e-14,10.7586207 2.5,13 2.5,13 Z" id="Path-9" fill="url(#linearGradient-1)"></path>
                                <path d="M3,12.1034483 L3,7.17241379 C3,6.92483787 2.77614237,6.72413793 2.5,6.72413793 C2.22385763,6.72413793 2,6.92483787 2,7.17241379 L2,12.1034483 C2,12.3510242 2.22385763,12.5517241 2.5,12.5517241 C2.77614237,12.5517241 3,12.3510242 3,12.1034483 Z" id="Path-10" fill="url(#linearGradient-2)" fill-rule="nonzero" opacity="0.5"></path>
                            </g>
                        </g>
                        <g id="leaf-copy-4" transform="translate(17.223373, 35.772404) scale(-1, -1) rotate(263.000000) translate(-17.223373, -35.772404) translate(15.614634, 31.107062)">
                            <g id="Group">
                                <path d="M1.5,9 C1.5,9 3,7.13793103 3,4.65517241 C3,2.17241379 1.5,0 1.5,0 C1.5,0 1.42108547e-14,1.86206897 1.42108547e-14,4.65517241 C1.42735651e-14,7.44827586 1.5,9 1.5,9 Z" id="Path-9" fill="url(#linearGradient-1)"></path>
                                <path d="M1.8,8.37931034 L1.8,4.96551724 C1.8,4.79411853 1.66568542,4.65517241 1.5,4.65517241 C1.33431458,4.65517241 1.2,4.79411853 1.2,4.96551724 L1.2,8.37931034 C1.2,8.55070906 1.33431458,8.68965517 1.5,8.68965517 C1.66568542,8.68965517 1.8,8.55070906 1.8,8.37931034 Z" id="Path-10" fill="url(#linearGradient-2)" fill-rule="nonzero" opacity="0.5"></path>
                            </g>
                        </g>
                        <g id="leaf-copy-4" transform="translate(13.298363, 28.368760) scale(-1, -1) rotate(218.000000) translate(-13.298363, -28.368760) translate(11.046128, 21.837280)">
                            <g id="Group">
                                <path d="M2.5,13 C2.5,13 5,10.3103448 5,6.72413793 C5,3.13793103 2.5,0 2.5,0 C2.5,0 1.42108547e-14,2.68965517 1.42108547e-14,6.72413793 C1.4315372e-14,10.7586207 2.5,13 2.5,13 Z" id="Path-9" fill="url(#linearGradient-1)"></path>
                                <path d="M3,12.1034483 L3,7.17241379 C3,6.92483787 2.77614237,6.72413793 2.5,6.72413793 C2.22385763,6.72413793 2,6.92483787 2,7.17241379 L2,12.1034483 C2,12.3510242 2.22385763,12.5517241 2.5,12.5517241 C2.77614237,12.5517241 3,12.3510242 3,12.1034483 Z" id="Path-10" fill="url(#linearGradient-2)" fill-rule="nonzero" opacity="0.5"></path>
                            </g>
                        </g>
                        <g id="leaf-copy-4" transform="translate(31.409865, 14.692163) scale(1, -1) rotate(228.000000) translate(-31.409865, -14.692163) translate(29.801126, 10.026820)">
                            <g id="Group">
                                <path d="M1.5,9 C1.5,9 3,7.13793103 3,4.65517241 C3,2.17241379 1.5,0 1.5,0 C1.5,0 1.42108547e-14,1.86206897 1.42108547e-14,4.65517241 C1.42735651e-14,7.44827586 1.5,9 1.5,9 Z" id="Path-9" fill="url(#linearGradient-1)"></path>
                                <path d="M1.8,8.37931034 L1.8,4.96551724 C1.8,4.79411853 1.66568542,4.65517241 1.5,4.65517241 C1.33431458,4.65517241 1.2,4.79411853 1.2,4.96551724 L1.2,8.37931034 C1.2,8.55070906 1.33431458,8.68965517 1.5,8.68965517 C1.66568542,8.68965517 1.8,8.55070906 1.8,8.37931034 Z" id="Path-10" fill="url(#linearGradient-2)" fill-rule="nonzero" opacity="0.5"></path>
                            </g>
                        </g>
                        <g id="leaf-copy-4" transform="translate(35.007870, 10.601039) scale(1, -1) rotate(183.000000) translate(-35.007870, -10.601039) translate(32.755636, 4.069559)">
                            <g id="Group">
                                <path d="M2.5,13 C2.5,13 5,10.3103448 5,6.72413793 C5,3.13793103 2.5,0 2.5,0 C2.5,0 1.42108547e-14,2.68965517 1.42108547e-14,6.72413793 C1.4315372e-14,10.7586207 2.5,13 2.5,13 Z" id="Path-9" fill="url(#linearGradient-1)"></path>
                                <path d="M3,12.1034483 L3,7.17241379 C3,6.92483787 2.77614237,6.72413793 2.5,6.72413793 C2.22385763,6.72413793 2,6.92483787 2,7.17241379 L2,12.1034483 C2,12.3510242 2.22385763,12.5517241 2.5,12.5517241 C2.77614237,12.5517241 3,12.3510242 3,12.1034483 Z" id="Path-10" fill="url(#linearGradient-2)" fill-rule="nonzero" opacity="0.5"></path>
                            </g>
                        </g>
                        <g id="leaf-copy-5" transform="translate(13.421632, 10.596062) scale(-1, -1) rotate(286.000000) translate(-13.421632, -10.596062) translate(11.812893, 5.930719)">
                            <g id="Group-Copy">
                                <path d="M1.5,9 C1.5,9 3,7.13793103 3,4.65517241 C3,2.17241379 1.5,0 1.5,0 C1.5,0 1.42108547e-14,1.86206897 1.42108547e-14,4.65517241 C1.42735651e-14,7.44827586 1.5,9 1.5,9 Z" id="Path-9" fill="url(#linearGradient-3)"></path>
                                <path d="M1.8,8.37931034 L1.8,4.96551724 C1.8,4.79411853 1.66568542,4.65517241 1.5,4.65517241 C1.33431458,4.65517241 1.2,4.79411853 1.2,4.96551724 L1.2,8.37931034 C1.2,8.55070906 1.33431458,8.68965517 1.5,8.68965517 C1.66568542,8.68965517 1.8,8.55070906 1.8,8.37931034 Z" id="Path-10" fill="url(#linearGradient-4)" fill-rule="nonzero" opacity="0.5"></path>
                            </g>
                        </g>
                        <g id="leaf-copy-4" opacity="0.5" transform="translate(14.984449, 5.376814) scale(-1, -1) rotate(241.000000) translate(-14.984449, -5.376814) translate(12.732214, -1.154665)">
                            <g id="Group">
                                <path d="M2.5,13 C2.5,13 5,10.3103448 5,6.72413793 C5,3.13793103 2.5,0 2.5,0 C2.5,0 1.42108547e-14,2.68965517 1.42108547e-14,6.72413793 C1.4315372e-14,10.7586207 2.5,13 2.5,13 Z" id="Path-9" fill="url(#linearGradient-1)"></path>
                                <path d="M3,12.1034483 L3,7.17241379 C3,6.92483787 2.77614237,6.72413793 2.5,6.72413793 C2.22385763,6.72413793 2,6.92483787 2,7.17241379 L2,12.1034483 C2,12.3510242 2.22385763,12.5517241 2.5,12.5517241 C2.77614237,12.5517241 3,12.3510242 3,12.1034483 Z" id="Path-10" fill="url(#linearGradient-2)" fill-rule="nonzero" opacity="0.5"></path>
                            </g>
                        </g>
                        <g id="leaf-copy-4" transform="translate(9.010915, 11.572685) scale(-1, -1) rotate(120.000000) translate(-9.010915, -11.572685) translate(7.402177, 6.907342)">
                            <g id="Group">
                                <path d="M1.5,9 C1.5,9 3,7.13793103 3,4.65517241 C3,2.17241379 1.5,0 1.5,0 C1.5,0 1.42108547e-14,1.86206897 1.42108547e-14,4.65517241 C1.42735651e-14,7.44827586 1.5,9 1.5,9 Z" id="Path-9" fill="url(#linearGradient-1)"></path>
                                <path d="M1.8,8.37931034 L1.8,4.96551724 C1.8,4.79411853 1.66568542,4.65517241 1.5,4.65517241 C1.33431458,4.65517241 1.2,4.79411853 1.2,4.96551724 L1.2,8.37931034 C1.2,8.55070906 1.33431458,8.68965517 1.5,8.68965517 C1.66568542,8.68965517 1.8,8.55070906 1.8,8.37931034 Z" id="Path-10" fill="url(#linearGradient-2)" fill-rule="nonzero" opacity="0.5"></path>
                            </g>
                        </g>
                        <g id="leaf-copy-4" transform="translate(7.132764, 16.258819) scale(-1, -1) rotate(75.000000) translate(-7.132764, -16.258819) translate(4.880530, 9.727339)">
                            <g id="Group">
                                <path d="M2.5,13 C2.5,13 5,10.3103448 5,6.72413793 C5,3.13793103 2.5,0 2.5,0 C2.5,0 1.42108547e-14,2.68965517 1.42108547e-14,6.72413793 C1.4315372e-14,10.7586207 2.5,13 2.5,13 Z" id="Path-9" fill="url(#linearGradient-1)"></path>
                                <path d="M3,12.1034483 L3,7.17241379 C3,6.92483787 2.77614237,6.72413793 2.5,6.72413793 C2.22385763,6.72413793 2,6.92483787 2,7.17241379 L2,12.1034483 C2,12.3510242 2.22385763,12.5517241 2.5,12.5517241 C2.77614237,12.5517241 3,12.3510242 3,12.1034483 Z" id="Path-10" fill="url(#linearGradient-2)" fill-rule="nonzero" opacity="0.5"></path>
                            </g>
                        </g>
                        <g id="leaf-copy-5" opacity="0.5" transform="translate(4.075408, 21.490541) scale(-1, -1) rotate(30.000000) translate(-4.075408, -21.490541) translate(2.466669, 16.825198)">
                            <g id="Group-Copy">
                                <path d="M1.5,9 C1.5,9 3,7.13793103 3,4.65517241 C3,2.17241379 1.5,0 1.5,0 C1.5,0 1.42108547e-14,1.86206897 1.42108547e-14,4.65517241 C1.42735651e-14,7.44827586 1.5,9 1.5,9 Z" id="Path-9" fill="url(#linearGradient-3)"></path>
                                <path d="M1.8,8.37931034 L1.8,4.96551724 C1.8,4.79411853 1.66568542,4.65517241 1.5,4.65517241 C1.33431458,4.65517241 1.2,4.79411853 1.2,4.96551724 L1.2,8.37931034 C1.2,8.55070906 1.33431458,8.68965517 1.5,8.68965517 C1.66568542,8.68965517 1.8,8.55070906 1.8,8.37931034 Z" id="Path-10" fill="url(#linearGradient-4)" fill-rule="nonzero" opacity="0.5"></path>
                            </g>
                        </g>
                        <g id="leaf-copy-5" transform="translate(7.860648, 24.269586) scale(-1, -1) rotate(-15.000000) translate(-7.860648, -24.269586) translate(5.608414, 17.738107)">
                            <g id="Group-Copy">
                                <path d="M2.5,13 C2.5,13 5,10.3103448 5,6.72413793 C5,3.13793103 2.5,0 2.5,0 C2.5,0 1.42108547e-14,2.68965517 1.42108547e-14,6.72413793 C1.4315372e-14,10.7586207 2.5,13 2.5,13 Z" id="Path-9" fill="url(#linearGradient-3)"></path>
                                <path d="M3,12.1034483 L3,7.17241379 C3,6.92483787 2.77614237,6.72413793 2.5,6.72413793 C2.22385763,6.72413793 2,6.92483787 2,7.17241379 L2,12.1034483 C2,12.3510242 2.22385763,12.5517241 2.5,12.5517241 C2.77614237,12.5517241 3,12.3510242 3,12.1034483 Z" id="Path-10" fill="url(#linearGradient-4)" fill-rule="nonzero" opacity="0.5"></path>
                            </g>
                        </g>
                        <g id="leaf-copy-4" opacity="0.5" transform="translate(10.769995, 18.171273) scale(1, -1) rotate(161.000000) translate(-10.769995, -18.171273) translate(9.161256, 13.505931)">
                            <g id="Group">
                                <path d="M1.5,9 C1.5,9 3,7.13793103 3,4.65517241 C3,2.17241379 1.5,0 1.5,0 C1.5,0 1.42108547e-14,1.86206897 1.42108547e-14,4.65517241 C1.42735651e-14,7.44827586 1.5,9 1.5,9 Z" id="Path-9" fill="url(#linearGradient-1)"></path>
                                <path d="M1.8,8.37931034 L1.8,4.96551724 C1.8,4.79411853 1.66568542,4.65517241 1.5,4.65517241 C1.33431458,4.65517241 1.2,4.79411853 1.2,4.96551724 L1.2,8.37931034 C1.2,8.55070906 1.33431458,8.68965517 1.5,8.68965517 C1.66568542,8.68965517 1.8,8.55070906 1.8,8.37931034 Z" id="Path-10" fill="url(#linearGradient-2)" fill-rule="nonzero" opacity="0.5"></path>
                            </g>
                        </g>
                        <g id="leaf-copy-5" transform="translate(6.490750, 12.991134) scale(1, -1) rotate(161.000000) translate(-6.490750, -12.991134) translate(4.882011, 8.325792)">
                            <g id="Group-Copy">
                                <path d="M1.5,9 C1.5,9 3,7.13793103 3,4.65517241 C3,2.17241379 1.5,0 1.5,0 C1.5,0 1.42108547e-14,1.86206897 1.42108547e-14,4.65517241 C1.42735651e-14,7.44827586 1.5,9 1.5,9 Z" id="Path-9" fill="url(#linearGradient-3)"></path>
                                <path d="M1.8,8.37931034 L1.8,4.96551724 C1.8,4.79411853 1.66568542,4.65517241 1.5,4.65517241 C1.33431458,4.65517241 1.2,4.79411853 1.2,4.96551724 L1.2,8.37931034 C1.2,8.55070906 1.33431458,8.68965517 1.5,8.68965517 C1.66568542,8.68965517 1.8,8.55070906 1.8,8.37931034 Z" id="Path-10" fill="url(#linearGradient-4)" fill-rule="nonzero" opacity="0.5"></path>
                            </g>
                        </g>
                        <g id="leaf-copy-4" opacity="0.5" transform="translate(15.941747, 19.884726) scale(1, -1) rotate(116.000000) translate(-15.941747, -19.884726) translate(13.689513, 13.353246)">
                            <g id="Group">
                                <path d="M2.5,13 C2.5,13 5,10.3103448 5,6.72413793 C5,3.13793103 2.5,0 2.5,0 C2.5,0 1.42108547e-14,2.68965517 1.42108547e-14,6.72413793 C1.4315372e-14,10.7586207 2.5,13 2.5,13 Z" id="Path-9" fill="url(#linearGradient-1)"></path>
                                <path d="M3,12.1034483 L3,7.17241379 C3,6.92483787 2.77614237,6.72413793 2.5,6.72413793 C2.22385763,6.72413793 2,6.92483787 2,7.17241379 L2,12.1034483 C2,12.3510242 2.22385763,12.5517241 2.5,12.5517241 C2.77614237,12.5517241 3,12.3510242 3,12.1034483 Z" id="Path-10" fill="url(#linearGradient-2)" fill-rule="nonzero" opacity="0.5"></path>
                            </g>
                        </g>
                        <g id="leaf-copy-4" transform="translate(6.594936, 28.511091) scale(-1, -1) rotate(161.000000) translate(-6.594936, -28.511091) translate(4.342702, 21.979611)">
                            <g id="Group">
                                <path d="M2.5,13 C2.5,13 5,10.3103448 5,6.72413793 C5,3.13793103 2.5,0 2.5,0 C2.5,0 1.42108547e-14,2.68965517 1.42108547e-14,6.72413793 C1.4315372e-14,10.7586207 2.5,13 2.5,13 Z" id="Path-9" fill="url(#linearGradient-1)"></path>
                                <path d="M3,12.1034483 L3,7.17241379 C3,6.92483787 2.77614237,6.72413793 2.5,6.72413793 C2.22385763,6.72413793 2,6.92483787 2,7.17241379 L2,12.1034483 C2,12.3510242 2.22385763,12.5517241 2.5,12.5517241 C2.77614237,12.5517241 3,12.3510242 3,12.1034483 Z" id="Path-10" fill="url(#linearGradient-2)" fill-rule="nonzero" opacity="0.5"></path>
                            </g>
                        </g>
                        <g id="leaf-copy-4" transform="translate(32.213873, 12.042871) scale(-1, -1) rotate(181.000000) translate(-32.213873, -12.042871) translate(30.605134, 7.377528)">
                            <g id="Group">
                                <path d="M1.5,9 C1.5,9 3,7.13793103 3,4.65517241 C3,2.17241379 1.5,0 1.5,0 C1.5,0 1.42108547e-14,1.86206897 1.42108547e-14,4.65517241 C1.42735651e-14,7.44827586 1.5,9 1.5,9 Z" id="Path-9" fill="url(#linearGradient-1)"></path>
                                <path d="M1.8,8.37931034 L1.8,4.96551724 C1.8,4.79411853 1.66568542,4.65517241 1.5,4.65517241 C1.33431458,4.65517241 1.2,4.79411853 1.2,4.96551724 L1.2,8.37931034 C1.2,8.55070906 1.33431458,8.68965517 1.5,8.68965517 C1.66568542,8.68965517 1.8,8.55070906 1.8,8.37931034 Z" id="Path-10" fill="url(#linearGradient-2)" fill-rule="nonzero" opacity="0.5"></path>
                            </g>
                        </g>
                        <g id="leaf-copy-4" transform="translate(26.767980, 11.884146) scale(-1, -1) rotate(136.000000) translate(-26.767980, -11.884146) translate(24.515746, 5.352667)">
                            <g id="Group">
                                <path d="M2.5,13 C2.5,13 5,10.3103448 5,6.72413793 C5,3.13793103 2.5,0 2.5,0 C2.5,0 1.42108547e-14,2.68965517 1.42108547e-14,6.72413793 C1.4315372e-14,10.7586207 2.5,13 2.5,13 Z" id="Path-9" fill="url(#linearGradient-1)"></path>
                                <path d="M3,12.1034483 L3,7.17241379 C3,6.92483787 2.77614237,6.72413793 2.5,6.72413793 C2.22385763,6.72413793 2,6.92483787 2,7.17241379 L2,12.1034483 C2,12.3510242 2.22385763,12.5517241 2.5,12.5517241 C2.77614237,12.5517241 3,12.3510242 3,12.1034483 Z" id="Path-10" fill="url(#linearGradient-2)" fill-rule="nonzero" opacity="0.5"></path>
                            </g>
                        </g>
                        <g id="leaf-copy-4" transform="translate(26.317534, 19.541743) scale(-1, -1) rotate(136.000000) translate(-26.317534, -19.541743) translate(24.065299, 13.010263)">
                            <g id="Group">
                                <path d="M2.5,13 C2.5,13 5,10.3103448 5,6.72413793 C5,3.13793103 2.5,0 2.5,0 C2.5,0 1.42108547e-14,2.68965517 1.42108547e-14,6.72413793 C1.4315372e-14,10.7586207 2.5,13 2.5,13 Z" id="Path-9" fill="url(#linearGradient-1)"></path>
                                <path d="M3,12.1034483 L3,7.17241379 C3,6.92483787 2.77614237,6.72413793 2.5,6.72413793 C2.22385763,6.72413793 2,6.92483787 2,7.17241379 L2,12.1034483 C2,12.3510242 2.22385763,12.5517241 2.5,12.5517241 C2.77614237,12.5517241 3,12.3510242 3,12.1034483 Z" id="Path-10" fill="url(#linearGradient-2)" fill-rule="nonzero" opacity="0.5"></path>
                            </g>
                        </g>
                        <g id="leaf-copy-4" transform="translate(11.533084, 32.131795) scale(-1, -1) rotate(-103.000000) translate(-11.533084, -32.131795) translate(9.924345, 27.466452)">
                            <g id="Group">
                                <path d="M1.5,9 C1.5,9 3,7.13793103 3,4.65517241 C3,2.17241379 1.5,0 1.5,0 C1.5,0 1.42108547e-14,1.86206897 1.42108547e-14,4.65517241 C1.42735651e-14,7.44827586 1.5,9 1.5,9 Z" id="Path-9" fill="url(#linearGradient-1)"></path>
                                <path d="M1.8,8.37931034 L1.8,4.96551724 C1.8,4.79411853 1.66568542,4.65517241 1.5,4.65517241 C1.33431458,4.65517241 1.2,4.79411853 1.2,4.96551724 L1.2,8.37931034 C1.2,8.55070906 1.33431458,8.68965517 1.5,8.68965517 C1.66568542,8.68965517 1.8,8.55070906 1.8,8.37931034 Z" id="Path-10" fill="url(#linearGradient-2)" fill-rule="nonzero" opacity="0.5"></path>
                            </g>
                        </g>
                        <g id="leaf-copy-4" transform="translate(18.446683, 35.582159) rotate(87.000000) translate(-18.446683, -35.582159) translate(16.194449, 29.050679)">
                            <g id="Group">
                                <path d="M2.5,13 C2.5,13 5,10.3103448 5,6.72413793 C5,3.13793103 2.5,0 2.5,0 C2.5,0 1.42108547e-14,2.68965517 1.42108547e-14,6.72413793 C1.4315372e-14,10.7586207 2.5,13 2.5,13 Z" id="Path-9" fill="url(#linearGradient-1)"></path>
                                <path d="M3,12.1034483 L3,7.17241379 C3,6.92483787 2.77614237,6.72413793 2.5,6.72413793 C2.22385763,6.72413793 2,6.92483787 2,7.17241379 L2,12.1034483 C2,12.3510242 2.22385763,12.5517241 2.5,12.5517241 C2.77614237,12.5517241 3,12.3510242 3,12.1034483 Z" id="Path-10" fill="url(#linearGradient-2)" fill-rule="nonzero" opacity="0.5"></path>
                            </g>
                        </g>
                        <g id="leaf-copy-5" transform="translate(23.792437, 34.417461) rotate(189.000000) translate(-23.792437, -34.417461) translate(22.183698, 29.752119)">
                            <g id="Group-Copy">
                                <path d="M1.5,9 C1.5,9 3,7.13793103 3,4.65517241 C3,2.17241379 1.5,0 1.5,0 C1.5,0 1.42108547e-14,1.86206897 1.42108547e-14,4.65517241 C1.42735651e-14,7.44827586 1.5,9 1.5,9 Z" id="Path-9" fill="url(#linearGradient-3)"></path>
                                <path d="M1.8,8.37931034 L1.8,4.96551724 C1.8,4.79411853 1.66568542,4.65517241 1.5,4.65517241 C1.33431458,4.65517241 1.2,4.79411853 1.2,4.96551724 L1.2,8.37931034 C1.2,8.55070906 1.33431458,8.68965517 1.5,8.68965517 C1.66568542,8.68965517 1.8,8.55070906 1.8,8.37931034 Z" id="Path-10" fill="url(#linearGradient-4)" fill-rule="nonzero" opacity="0.5"></path>
                            </g>
                        </g>
                        <g id="leaf-copy-4" transform="translate(28.523858, 33.992751) rotate(144.000000) translate(-28.523858, -33.992751) translate(26.271624, 27.461271)">
                            <g id="Group">
                                <path d="M2.5,13 C2.5,13 5,10.3103448 5,6.72413793 C5,3.13793103 2.5,0 2.5,0 C2.5,0 1.42108547e-14,2.68965517 1.42108547e-14,6.72413793 C1.4315372e-14,10.7586207 2.5,13 2.5,13 Z" id="Path-9" fill="url(#linearGradient-1)"></path>
                                <path d="M3,12.1034483 L3,7.17241379 C3,6.92483787 2.77614237,6.72413793 2.5,6.72413793 C2.22385763,6.72413793 2,6.92483787 2,7.17241379 L2,12.1034483 C2,12.3510242 2.22385763,12.5517241 2.5,12.5517241 C2.77614237,12.5517241 3,12.3510242 3,12.1034483 Z" id="Path-10" fill="url(#linearGradient-2)" fill-rule="nonzero" opacity="0.5"></path>
                            </g>
                        </g>
                        <path d="M26.1128405,29.2372425 C26.1128405,27.6389937 27.4087367,26.3433571 29.0000586,26.3433571 L29.0000586,26.3433571 C30.5946251,26.3433571 31.8872766,27.6420079 31.8872766,29.2372425 L31.8872766,48.2535337 C31.8872766,49.8517825 30.5913804,51.1474192 29.0000586,51.1474192 L29.0000586,51.1474192 C27.4054921,51.1474192 26.1128405,49.8487683 26.1128405,48.2535337 L26.1128405,29.2372425 Z" id="Rectangle" fill="url(#linearGradient-5)" transform="translate(29.000059, 38.745388) rotate(45.000000) translate(-29.000059, -38.745388) "></path>
                        <path d="M14.9226703,36.051216 C14.9226703,34.3913139 16.261956,33.0456973 17.9282799,33.0456973 L17.6914968,33.0456973 C19.3514491,33.0456973 20.6971064,34.3849294 20.6971064,36.0400896 L20.6971064,43.1608289 C20.6971064,45.7465493 22.7126536,48.447354 24.3061289,48.9253966 L24.3061289,48.9253966 L17.9174544,48.9253966 C16.2634808,48.9253966 14.9226703,47.5851881 14.9226703,45.9198779 L14.9226703,36.051216 Z" id="Rectangle" fill="url(#linearGradient-6)" transform="translate(19.614400, 40.985547) rotate(-45.000000) translate(-19.614400, -40.985547) "></path>
                        <g id="leaf-copy-4" transform="translate(21.711962, 7.113471) rotate(139.000000) translate(-21.711962, -7.113471) translate(20.103224, 2.448128)">
                            <g id="Group">
                                <path d="M1.5,9 C1.5,9 3,7.13793103 3,4.65517241 C3,2.17241379 1.5,0 1.5,0 C1.5,0 1.42108547e-14,1.86206897 1.42108547e-14,4.65517241 C1.42735651e-14,7.44827586 1.5,9 1.5,9 Z" id="Path-9" fill="url(#linearGradient-1)"></path>
                                <path d="M1.8,8.37931034 L1.8,4.96551724 C1.8,4.79411853 1.66568542,4.65517241 1.5,4.65517241 C1.33431458,4.65517241 1.2,4.79411853 1.2,4.96551724 L1.2,8.37931034 C1.2,8.55070906 1.33431458,8.68965517 1.5,8.68965517 C1.66568542,8.68965517 1.8,8.55070906 1.8,8.37931034 Z" id="Path-10" fill="url(#linearGradient-2)" fill-rule="nonzero" opacity="0.5"></path>
                            </g>
                        </g>
                        <g id="leaf-copy-5" transform="translate(25.865257, 3.587413) rotate(94.000000) translate(-25.865257, -3.587413) translate(23.613023, -2.944067)">
                            <g id="Group-Copy">
                                <path d="M2.5,13 C2.5,13 5,10.3103448 5,6.72413793 C5,3.13793103 2.5,0 2.5,0 C2.5,0 1.42108547e-14,2.68965517 1.42108547e-14,6.72413793 C1.4315372e-14,10.7586207 2.5,13 2.5,13 Z" id="Path-9" fill="url(#linearGradient-3)"></path>
                                <path d="M3,12.1034483 L3,7.17241379 C3,6.92483787 2.77614237,6.72413793 2.5,6.72413793 C2.22385763,6.72413793 2,6.92483787 2,7.17241379 L2,12.1034483 C2,12.3510242 2.22385763,12.5517241 2.5,12.5517241 C2.77614237,12.5517241 3,12.3510242 3,12.1034483 Z" id="Path-10" fill="url(#linearGradient-4)" fill-rule="nonzero" opacity="0.5"></path>
                            </g>
                        </g>
                        <g id="leaf-copy-5" transform="translate(38.307222, 29.597588) scale(-1, 1) rotate(485.000000) translate(-38.307222, -29.597588) translate(36.698483, 24.932245)">
                            <g id="Group-Copy">
                                <path d="M1.5,9 C1.5,9 3,7.13793103 3,4.65517241 C3,2.17241379 1.5,0 1.5,0 C1.5,0 1.42108547e-14,1.86206897 1.42108547e-14,4.65517241 C1.42735651e-14,7.44827586 1.5,9 1.5,9 Z" id="Path-9" fill="url(#linearGradient-3)"></path>
                                <path d="M1.8,8.37931034 L1.8,4.96551724 C1.8,4.79411853 1.66568542,4.65517241 1.5,4.65517241 C1.33431458,4.65517241 1.2,4.79411853 1.2,4.96551724 L1.2,8.37931034 C1.2,8.55070906 1.33431458,8.68965517 1.5,8.68965517 C1.66568542,8.68965517 1.8,8.55070906 1.8,8.37931034 Z" id="Path-10" fill="url(#linearGradient-4)" fill-rule="nonzero" opacity="0.5"></path>
                            </g>
                        </g>
                        <g id="leaf-copy-4" transform="translate(17.811889, 25.543566) scale(-1, 1) rotate(485.000000) translate(-17.811889, -25.543566) translate(16.203151, 20.878223)">
                            <g id="Group">
                                <path d="M1.5,9 C1.5,9 3,7.13793103 3,4.65517241 C3,2.17241379 1.5,0 1.5,0 C1.5,0 1.42108547e-14,1.86206897 1.42108547e-14,4.65517241 C1.42735651e-14,7.44827586 1.5,9 1.5,9 Z" id="Path-9" fill="url(#linearGradient-1)"></path>
                                <path d="M1.8,8.37931034 L1.8,4.96551724 C1.8,4.79411853 1.66568542,4.65517241 1.5,4.65517241 C1.33431458,4.65517241 1.2,4.79411853 1.2,4.96551724 L1.2,8.37931034 C1.2,8.55070906 1.33431458,8.68965517 1.5,8.68965517 C1.66568542,8.68965517 1.8,8.55070906 1.8,8.37931034 Z" id="Path-10" fill="url(#linearGradient-2)" fill-rule="nonzero" opacity="0.5"></path>
                            </g>
                        </g>
                        <g id="leaf-copy-4" transform="translate(14.634996, 21.117474) scale(-1, 1) rotate(440.000000) translate(-14.634996, -21.117474) translate(12.382762, 14.585994)">
                            <g id="Group">
                                <path d="M2.5,13 C2.5,13 5,10.3103448 5,6.72413793 C5,3.13793103 2.5,0 2.5,0 C2.5,0 1.42108547e-14,2.68965517 1.42108547e-14,6.72413793 C1.4315372e-14,10.7586207 2.5,13 2.5,13 Z" id="Path-9" fill="url(#linearGradient-1)"></path>
                                <path d="M3,12.1034483 L3,7.17241379 C3,6.92483787 2.77614237,6.72413793 2.5,6.72413793 C2.22385763,6.72413793 2,6.92483787 2,7.17241379 L2,12.1034483 C2,12.3510242 2.22385763,12.5517241 2.5,12.5517241 C2.77614237,12.5517241 3,12.3510242 3,12.1034483 Z" id="Path-10" fill="url(#linearGradient-2)" fill-rule="nonzero" opacity="0.5"></path>
                            </g>
                        </g>
                        <g id="leaf-copy-5" transform="translate(34.905105, 15.937335) scale(-1, 1) rotate(440.000000) translate(-34.905105, -15.937335) translate(32.652871, 9.405855)">
                            <g id="Group-Copy">
                                <path d="M2.5,13 C2.5,13 5,10.3103448 5,6.72413793 C5,3.13793103 2.5,0 2.5,0 C2.5,0 1.42108547e-14,2.68965517 1.42108547e-14,6.72413793 C1.4315372e-14,10.7586207 2.5,13 2.5,13 Z" id="Path-9" fill="url(#linearGradient-3)"></path>
                                <path d="M3,12.1034483 L3,7.17241379 C3,6.92483787 2.77614237,6.72413793 2.5,6.72413793 C2.22385763,6.72413793 2,6.92483787 2,7.17241379 L2,12.1034483 C2,12.3510242 2.22385763,12.5517241 2.5,12.5517241 C2.77614237,12.5517241 3,12.3510242 3,12.1034483 Z" id="Path-10" fill="url(#linearGradient-4)" fill-rule="nonzero" opacity="0.5"></path>
                            </g>
                        </g>
                        <g id="leaf-copy-5" transform="translate(30.424402, 12.705830) scale(-1, 1) rotate(485.000000) translate(-30.424402, -12.705830) translate(28.815663, 8.040487)">
                            <g id="Group-Copy">
                                <path d="M1.5,9 C1.5,9 3,7.13793103 3,4.65517241 C3,2.17241379 1.5,0 1.5,0 C1.5,0 1.42108547e-14,1.86206897 1.42108547e-14,4.65517241 C1.42735651e-14,7.44827586 1.5,9 1.5,9 Z" id="Path-9" fill="url(#linearGradient-3)"></path>
                                <path d="M1.8,8.37931034 L1.8,4.96551724 C1.8,4.79411853 1.66568542,4.65517241 1.5,4.65517241 C1.33431458,4.65517241 1.2,4.79411853 1.2,4.96551724 L1.2,8.37931034 C1.2,8.55070906 1.33431458,8.68965517 1.5,8.68965517 C1.66568542,8.68965517 1.8,8.55070906 1.8,8.37931034 Z" id="Path-10" fill="url(#linearGradient-4)" fill-rule="nonzero" opacity="0.5"></path>
                            </g>
                        </g>
                        <g id="leaf-copy-4" transform="translate(27.247508, 8.279738) scale(-1, 1) rotate(440.000000) translate(-27.247508, -8.279738) translate(24.995274, 1.748258)">
                            <g id="Group">
                                <path d="M2.5,13 C2.5,13 5,10.3103448 5,6.72413793 C5,3.13793103 2.5,0 2.5,0 C2.5,0 1.42108547e-14,2.68965517 1.42108547e-14,6.72413793 C1.4315372e-14,10.7586207 2.5,13 2.5,13 Z" id="Path-9" fill="url(#linearGradient-1)"></path>
                                <path d="M3,12.1034483 L3,7.17241379 C3,6.92483787 2.77614237,6.72413793 2.5,6.72413793 C2.22385763,6.72413793 2,6.92483787 2,7.17241379 L2,12.1034483 C2,12.3510242 2.22385763,12.5517241 2.5,12.5517241 C2.77614237,12.5517241 3,12.3510242 3,12.1034483 Z" id="Path-10" fill="url(#linearGradient-2)" fill-rule="nonzero" opacity="0.5"></path>
                            </g>
                        </g>
                        <g id="leaf-copy-4" transform="translate(26.817961, 16.301909) scale(-1, 1) rotate(216.000000) translate(-26.817961, -16.301909) translate(25.209222, 11.636567)">
                            <g id="Group">
                                <path d="M1.5,9 C1.5,9 3,7.13793103 3,4.65517241 C3,2.17241379 1.5,0 1.5,0 C1.5,0 1.42108547e-14,1.86206897 1.42108547e-14,4.65517241 C1.42735651e-14,7.44827586 1.5,9 1.5,9 Z" id="Path-9" fill="url(#linearGradient-1)"></path>
                                <path d="M1.8,8.37931034 L1.8,4.96551724 C1.8,4.79411853 1.66568542,4.65517241 1.5,4.65517241 C1.33431458,4.65517241 1.2,4.79411853 1.2,4.96551724 L1.2,8.37931034 C1.2,8.55070906 1.33431458,8.68965517 1.5,8.68965517 C1.66568542,8.68965517 1.8,8.55070906 1.8,8.37931034 Z" id="Path-10" fill="url(#linearGradient-2)" fill-rule="nonzero" opacity="0.5"></path>
                            </g>
                        </g>
                        <g id="leaf-copy-4" opacity="0.5" transform="translate(24.000343, 24.753738) scale(-1, 1) rotate(367.000000) translate(-24.000343, -24.753738) translate(22.391604, 20.088396)">
                            <g id="Group">
                                <path d="M1.5,9 C1.5,9 3,7.13793103 3,4.65517241 C3,2.17241379 1.5,0 1.5,0 C1.5,0 1.42108547e-14,1.86206897 1.42108547e-14,4.65517241 C1.42735651e-14,7.44827586 1.5,9 1.5,9 Z" id="Path-9" fill="url(#linearGradient-1)"></path>
                                <path d="M1.8,8.37931034 L1.8,4.96551724 C1.8,4.79411853 1.66568542,4.65517241 1.5,4.65517241 C1.33431458,4.65517241 1.2,4.79411853 1.2,4.96551724 L1.2,8.37931034 C1.2,8.55070906 1.33431458,8.68965517 1.5,8.68965517 C1.66568542,8.68965517 1.8,8.55070906 1.8,8.37931034 Z" id="Path-10" fill="url(#linearGradient-2)" fill-rule="nonzero" opacity="0.5"></path>
                            </g>
                        </g>
                        <g id="leaf-copy-5" transform="translate(21.934506, 21.265642) scale(-1, 1) rotate(171.000000) translate(-21.934506, -21.265642) translate(19.682271, 14.734162)">
                            <g id="Group-Copy">
                                <path d="M2.5,13 C2.5,13 5,10.3103448 5,6.72413793 C5,3.13793103 2.5,0 2.5,0 C2.5,0 1.42108547e-14,2.68965517 1.42108547e-14,6.72413793 C1.4315372e-14,10.7586207 2.5,13 2.5,13 Z" id="Path-9" fill="url(#linearGradient-3)"></path>
                                <path d="M3,12.1034483 L3,7.17241379 C3,6.92483787 2.77614237,6.72413793 2.5,6.72413793 C2.22385763,6.72413793 2,6.92483787 2,7.17241379 L2,12.1034483 C2,12.3510242 2.22385763,12.5517241 2.5,12.5517241 C2.77614237,12.5517241 3,12.3510242 3,12.1034483 Z" id="Path-10" fill="url(#linearGradient-4)" fill-rule="nonzero" opacity="0.5"></path>
                            </g>
                        </g>
                    </g>
                </g>
            </g>
        </g>
    </g>
</svg>