<?xml version="1.0" encoding="UTF-8" standalone="no"?>
<svg width="47px" height="47px" viewBox="0 0 47 47" version="1.1" xmlns="http://www.w3.org/2000/svg" xmlns:xlink="http://www.w3.org/1999/xlink">
    <!-- Generator: Sketch 42 (36781) - http://www.bohemiancoding.com/sketch -->
    <title>app_icon</title>
    <desc>Created with Sketch.</desc>
    <defs>
        <ellipse id="path-1" cx="21.0651429" cy="21.0651429" rx="21.0651429" ry="21.0651429"></ellipse>
        <linearGradient x1="51.5252239%" y1="50%" x2="75.6125597%" y2="76.639217%" id="linearGradient-3">
            <stop stop-color="#000000" stop-opacity="0.133491848" offset="0%"></stop>
            <stop stop-color="#000000" stop-opacity="0" offset="100%"></stop>
        </linearGradient>
        <ellipse id="path-4" cx="17.6796735" cy="17.6796735" rx="17.6796735" ry="17.6796735"></ellipse>
        <filter x="-50%" y="-50%" width="200%" height="200%" filterUnits="objectBoundingBox" id="filter-6">
            <feOffset dx="2" dy="2" in="SourceAlpha" result="shadowOffsetOuter1"></feOffset>
            <feColorMatrix values="0 0 0 0 0   0 0 0 0 0   0 0 0 0 0  0 0 0 0.1 0" type="matrix" in="shadowOffsetOuter1"></feColorMatrix>
        </filter>
        <linearGradient x1="51.5252239%" y1="50%" x2="74.9233212%" y2="79.7531715%" id="linearGradient-7">
            <stop stop-color="#000000" stop-opacity="0.133491848" offset="0%"></stop>
            <stop stop-color="#000000" stop-opacity="0" offset="100%"></stop>
        </linearGradient>
        <linearGradient x1="37.3450072%" y1="-5.87512408%" x2="37.3450071%" y2="100%" id="linearGradient-8">
            <stop stop-color="#000000" stop-opacity="0.133491848" offset="0%"></stop>
            <stop stop-color="#000000" stop-opacity="0" offset="100%"></stop>
        </linearGradient>
        <linearGradient x1="0%" y1="44.1129009%" x2="95.2746549%" y2="48.5287255%" id="linearGradient-9">
            <stop stop-color="#000000" stop-opacity="0.133491848" offset="0%"></stop>
            <stop stop-color="#000000" stop-opacity="0" offset="100%"></stop>
        </linearGradient>
        <rect id="path-10" x="2.63314286" y="0.376163265" width="1.50465306" height="16.1750204" rx="0.752326531"></rect>
        <filter x="-50%" y="-50%" width="200%" height="200%" filterUnits="objectBoundingBox" id="filter-11">
            <feOffset dx="1" dy="0" in="SourceAlpha" result="shadowOffsetOuter1"></feOffset>
            <feColorMatrix values="0 0 0 0 0   0 0 0 0 0   0 0 0 0 0  0 0 0 0.1 0" type="matrix" in="shadowOffsetOuter1"></feColorMatrix>
        </filter>
        <rect id="path-12" x="5.45696821e-15" y="11.6610612" width="12.0372245" height="2.25697959" rx="1.1284898"></rect>
        <filter x="-50%" y="-50%" width="200%" height="200%" filterUnits="objectBoundingBox" id="filter-13">
            <feOffset dx="1" dy="0" in="SourceAlpha" result="shadowOffsetOuter1"></feOffset>
            <feColorMatrix values="0 0 0 0 0   0 0 0 0 0   0 0 0 0 0  0 0 0 0.1 0" type="matrix" in="shadowOffsetOuter1"></feColorMatrix>
        </filter>
        <path d="M0,5.8723177 C0,3.66787236 1.78482414,1.88081633 4.00103441,1.88081633 L16.3117819,1.88081633 C18.5214922,1.88081633 20.3128163,3.66742278 20.3128163,5.8723177 L20.3128163,15.1928252 C20.3128163,17.3972705 18.5279922,19.1843265 16.3117819,19.1843265 L4.00103441,19.1843265 C1.79132412,19.1843265 0,17.3977201 0,15.1928252 L0,5.8723177 Z" id="path-14"></path>
        <linearGradient x1="-40.8448428%" y1="0%" x2="100%" y2="86.4981326%" id="linearGradient-16">
            <stop stop-color="#000000" stop-opacity="0.133491848" offset="0%"></stop>
            <stop stop-color="#000000" stop-opacity="0" offset="100%"></stop>
        </linearGradient>
        <linearGradient x1="43.4632441%" y1="34.7356059%" x2="66.3447184%" y2="59.221313%" id="linearGradient-17">
            <stop stop-color="#000000" stop-opacity="0.133491848" offset="0%"></stop>
            <stop stop-color="#000000" stop-opacity="0" offset="100%"></stop>
        </linearGradient>
    </defs>
    <g id="Symbols" stroke="none" stroke-width="1" fill="none" fill-rule="evenodd">
        <g id="services" transform="translate(-61.000000, -82.000000)">
            <g transform="translate(5.000000, 0.000000)" id="Group-6">
                <g transform="translate(48.000000, 82.000000)">
                    <g id="app_icon" transform="translate(8.000000, 0.000000)">
                        <g id="Group-5" transform="translate(3.761633, 3.385469)">
                            <g id="Path-6-Copy" transform="translate(0.752327, 0.752327)">
                                <mask id="mask-2" fill="white">
                                    <use xlink:href="#path-1"></use>
                                </mask>
                                <use id="Mask" fill="#039BE5" xlink:href="#path-1"></use>
                                <path d="M11.4210283,-2.2578698 C13.6310872,-2.25737815 16.6885866,-0.991086916 18.2475371,0.567863626 L20.8734425,3.19376903 C22.4335603,4.75388686 23.6982857,7.80023411 23.6982857,10.0196956 L23.6982857,16.3129593 C23.6982857,18.5226966 21.8974719,20.3140426 19.7007767,20.3140426 L4.74623037,20.3140426 C2.5384671,20.3140426 -0.515573804,19.0497475 -2.07588206,17.4894392 L-1.70502026,17.860301 C-3.26500564,16.3003156 -4.52962366,13.2497514 -4.52962366,11.0456713 L-4.52962366,3.73972973 C-4.52962366,0.42538727 -1.83876534,-2.26081955 1.47025428,-2.26008343 L11.4210283,-2.2578698 Z" fill="url(#linearGradient-3)" mask="url(#mask-2)"></path>
                            </g>
                            <g id="Path-6" transform="translate(4.137796, 4.137796)">
                                <mask id="mask-5" fill="white">
                                    <use xlink:href="#path-4"></use>
                                </mask>
                                <g id="Mask">
                                    <use fill="black" fill-opacity="1" filter="url(#filter-6)" xlink:href="#path-4"></use>
                                    <use fill="#2AB6F6" fill-rule="evenodd" xlink:href="#path-4"></use>
                                </g>
                                <path d="M8.03555887,-5.64333918 C10.2456178,-5.64284754 13.3031172,-4.3765563 14.8620677,-2.81760576 L17.4879731,-0.191700361 C19.0480909,1.36841747 20.3128163,4.41476472 20.3128163,6.6342262 L20.3128163,12.9274899 C20.3128163,15.1372272 18.5120025,16.9285732 16.3153073,16.9285732 L1.36076099,16.9285732 C-0.847002292,16.9285732 -3.90104319,15.6642781 -5.46135145,14.1039698 L-5.09048965,14.4748316 C-6.65047503,12.9148463 -7.91509305,9.86428202 -7.91509305,7.6602019 L-7.91509305,0.354260339 C-7.91509305,-2.96008212 -5.22423473,-5.64628894 -1.91521511,-5.64555282 L8.03555887,-5.64333918 Z" fill="url(#linearGradient-7)" mask="url(#mask-5)"></path>
                            </g>
                            <g id="Group-2" transform="translate(20.688980, 5.266286)" fill="#81D4FA">
                                <rect id="Rectangle" x="0" y="0" width="2.25697959" height="3.76163265"></rect>
                                <rect id="Rectangle-Copy" x="0" y="28.9645714" width="2.25697959" height="3.76163265"></rect>
                            </g>
                            <g id="Group" transform="translate(21.629388, 21.817469) rotate(90.000000) translate(-21.629388, -21.817469) translate(20.500898, 5.454367)" fill="#81D4FA">
                                <rect id="Rectangle" x="0" y="0" width="2.25697959" height="3.76163265"></rect>
                                <rect id="Rectangle-Copy" x="0" y="28.9645714" width="2.25697959" height="3.76163265"></rect>
                            </g>
                            <polygon id="Rectangle-5" fill="url(#linearGradient-8)" points="7.89942857 22.1936327 27.4599184 22.1936327 31.5977143 26.7075918 12.0372245 26.7075918"></polygon>
                            <g id="Group-4" transform="translate(29.633455, 23.536937) rotate(45.000000) translate(-29.633455, -23.536937) translate(19.665129, 15.261345)">
                                <rect id="Rectangle-9" fill="url(#linearGradient-9)" x="10.7301046" y="11.7885184" width="9.02791837" height="2.25697959"></rect>
                                <polygon id="Path-2" fill="url(#linearGradient-9)" points="3.22574249 0.3510518 12.5391074 0.3510518 12.5391074 16.3125877 3.48788771 16.3125877"></polygon>
                                <g id="Rectangle-2">
                                    <use fill="black" fill-opacity="1" filter="url(#filter-11)" xlink:href="#path-10"></use>
                                    <use fill="#FFC107" fill-rule="evenodd" xlink:href="#path-10"></use>
                                </g>
                                <g id="Rectangle-3">
                                    <use fill="black" fill-opacity="1" filter="url(#filter-13)" xlink:href="#path-12"></use>
                                    <use fill="#FFC107" fill-rule="evenodd" xlink:href="#path-12"></use>
                                </g>
                            </g>
                            <rect id="Rectangle-4" fill="#FF5722" x="7.89942857" y="21.4413061" width="19.5604898" height="0.752326531"></rect>
                            <g id="Group-3" transform="translate(21.629388, 21.629388) rotate(60.000000) translate(-21.629388, -21.629388) translate(6.018612, 6.018612)" fill="#81D4FA">
                                <rect id="Rectangle-8" x="15.4226939" y="-3.20736091e-14" width="0.752326531" height="3.00930612"></rect>
                                <rect id="Rectangle-8-Copy" x="15.4226939" y="28.2122449" width="0.752326531" height="3.00930612"></rect>
                                <rect id="Rectangle-8" transform="translate(29.716898, 15.798857) rotate(90.000000) translate(-29.716898, -15.798857) " x="29.3407347" y="14.2942041" width="0.752326531" height="3.00930612"></rect>
                                <rect id="Rectangle-8-Copy" transform="translate(1.504653, 15.798857) rotate(90.000000) translate(-1.504653, -15.798857) " x="1.1284898" y="14.2942041" width="0.752326531" height="3.00930612"></rect>
                            </g>
                            <g id="Group-3-Copy" transform="translate(21.629388, 21.629388) rotate(30.000000) translate(-21.629388, -21.629388) translate(6.018612, 6.018612)" fill="#81D4FA">
                                <rect id="Rectangle-8" x="15.4226939" y="-1.4032204e-14" width="0.752326531" height="3.00930612"></rect>
                                <rect id="Rectangle-8-Copy" x="15.4226939" y="28.2122449" width="0.752326531" height="3.00930612"></rect>
                                <rect id="Rectangle-8" transform="translate(29.716898, 15.798857) rotate(90.000000) translate(-29.716898, -15.798857) " x="29.3407347" y="14.2942041" width="0.752326531" height="3.00930612"></rect>
                                <rect id="Rectangle-8-Copy" transform="translate(1.504653, 15.798857) rotate(90.000000) translate(-1.504653, -15.798857) " x="1.1284898" y="14.2942041" width="0.752326531" height="3.00930612"></rect>
                            </g>
                        </g>
                        <g id="Rectangle-6">
                            <mask id="mask-15" fill="white">
                                <use xlink:href="#path-14"></use>
                            </mask>
                            <use id="Mask" fill="#FFD54F" xlink:href="#path-14"></use>
                            <rect fill="#FFC104" mask="url(#mask-15)" x="0" y="1.88081633" width="20.3128163" height="4.51395918"></rect>
                            <path d="M3.76163265,1.88081633 L5.64244898,1.88081633 L5.64244898,4.32324375 C5.64244898,4.84407144 5.22503488,5.26628571 4.70204082,5.26628571 L4.70204082,5.26628571 C4.18266773,5.26628571 3.76163265,4.85116071 3.76163265,4.32324375 L3.76163265,1.88081633 Z" id="Rectangle-7-Copy" fill="url(#linearGradient-16)"></path>
                            <path d="M16.1750204,1.88081633 L18.0558367,1.88081633 L18.0558367,4.32324375 C18.0558367,4.84407144 17.6384226,5.26628571 17.1154286,5.26628571 L17.1154286,5.26628571 C16.5960555,5.26628571 16.1750204,4.85116071 16.1750204,4.32324375 L16.1750204,1.88081633 Z" id="Rectangle-7-Copy" fill="url(#linearGradient-16)"></path>
                            <polyline id="Path-5" fill="url(#linearGradient-17)" points="13.5418776 10.1564082 15.2450292 11.8595598 10.7267077 16.3778813 9.02355046 14.6747241"></polyline>
                            <polygon id="Shape" fill="#0288D1" points="9.25361633 13.7675755 7.67373061 12.1876898 7.14710204 12.7143184 9.25361633 14.8208327 13.7675755 10.3068735 13.2409469 9.7802449"></polygon>
                            <rect id="Rectangle-7" fill="#D8D8D8" x="3.00930612" y="0" width="1.88081633" height="4.51395918" rx="0.940408163"></rect>
                            <rect id="Rectangle-7" fill="#D8D8D8" x="15.4226939" y="0" width="1.88081633" height="4.51395918" rx="0.940408163"></rect>
                        </g>
                    </g>
                </g>
            </g>
        </g>
    </g>
</svg>